Coordinates
version=1
nRows=24
nColumns=24
inDegrees=yes

Units are S.I. units (second, meters, Newtons, ...)
Angles are in degrees.

endheader
time	pelvis_tilt	pelvis_list	pelvis_rotation	pelvis_tx	pelvis_ty	pelvis_tz	hip_flexion_r	hip_adduction_r	hip_rotation_r	knee_angle_r	ankle_angle_r	subtalar_angle_r	mtp_angle_r	hip_flexion_l	hip_adduction_l	hip_rotation_l	knee_angle_l	ankle_angle_l	subtalar_angle_l	mtp_angle_l	lumbar_extension	lumbar_bending	lumbar_rotation
      0.01000000	     50.16891047	      2.50139488	     -1.98187914	      0.75122692	      0.96272438	     -0.27284474	     17.23353996	    -14.34715597	      8.29798559	    -62.76606439	      7.09315782	     15.76778810	    -34.68711600	     23.99024439	     -5.67712812	     -0.42743696	     -5.10279519	    -12.95943844	     13.41967299	    -25.50648847	      0.00000000	      0.00000000	      0.00000000
      0.02000000	     49.96146176	      2.46157398	     -1.72845258	      0.75117608	      0.96238952	     -0.27289998	     17.37004327	    -14.32616187	      8.04455286	    -62.76216701	      6.79648587	     15.55346716	    -35.89422093	     24.33829123	     -5.66507369	     -0.20070015	     -5.21909163	    -13.20864808	     13.56674849	    -25.38552129	      0.00000000	      0.00000000	      0.00000000
      0.03000000	     49.87408146	      2.44192444	     -1.60859657	      0.75117406	      0.96224147	     -0.27294422	     17.42471384	    -14.32078091	      7.91432356	    -62.84108593	      6.85223450	     15.53491012	    -35.75340317	     24.49536266	     -5.66146102	     -0.08539526	     -5.27326364	    -13.33542051	     13.64276459	    -25.38123807	      0.00000000	      0.00000000	      0.00000000
      0.04000000	     49.87434880	      2.43933379	     -1.57726169	      0.75118649	      0.96222682	     -0.27294336	     17.42924757	    -14.32195271	      7.87233880	    -62.96604954	      7.12265028	     15.65586430	    -34.70240701	     24.51635038	     -5.66229390	     -0.05298043	     -5.28426702	    -13.37374910	     13.66527855	    -25.46117041	      0.00000000	      0.00000000	      0.00000000
      0.05000000	     49.92072913	      2.44763021	     -1.59044398	      0.75118578	      0.96227344	     -0.27291248	     17.41173255	    -14.32370669	      7.88066470	    -63.09726459	      7.45449009	     15.84863671	    -33.25468884	     24.46583394	     -5.66367345	     -0.07069825	     -5.27155829	    -13.36136602	     13.65374679	    -25.58670583	      0.00000000	      0.00000000	      0.00000000
      0.06000000	     49.97368203	      2.45960212	     -1.61676366	      0.75116777	      0.96232168	     -0.27287777	     17.38995873	    -14.32527237	      7.90833346	    -63.20167542	      7.72193029	     16.04845797	    -31.87930644	     24.40191792	     -5.66386882	     -0.10933079	     -5.24987396	    -13.33030417	     13.62465576	    -25.72147067	      0.00000000	      0.00000000	      0.00000000
      0.07000000	     50.00550592	      2.47032895	     -1.63878433	      0.75115127	      0.96233493	     -0.27285197	     17.37391667	    -14.32837309	      7.93528667	    -63.25717305	      7.85090094	     16.20329165	    -30.92439263	     24.36457546	     -5.66372985	     -0.14767346	     -5.22817013	    -13.30241368	     13.58941467	    -25.83670796	      0.00000000	      0.00000000	      0.00000000
      0.08000000	     50.00488128	      2.47781571	     -1.64955674	      0.75115194	      0.96230863	     -0.27284507	     17.37006549	    -14.33401041	      7.95209369	    -63.25421005	      7.82454480	     16.27976003	    -30.58067180	     24.37056261	     -5.66497990	     -0.17404871	     -5.21093996	    -13.28883699	     13.55455293	    -25.91400659	      0.00000000	      0.00000000	      0.00000000
      0.09000000	     49.97530702	      2.48121223	     -1.64851259	      0.75115991	      0.96227383	     -0.27286433	     17.38250204	    -14.34147261	      7.95743570	    -63.19599918	      7.67266983	     16.26559329	    -30.87930633	     24.41607921	     -5.66816722	     -0.18538200	     -5.19978822	    -13.29194057	     13.52319841	    -25.94574156	      0.00000000	      0.00000000	      0.00000000
      0.10000000	     49.92915745	      2.48003654	     -1.63863061	      0.75115374	      0.96226428	     -0.27290988	     17.41071242	    -14.34890440	      7.95458509	    -63.09692277	      7.45126636	     16.16885517	    -31.71648468	     24.48513340	     -5.67220811	     -0.18466274	     -5.19431255	    -13.30829897	     13.49672334	    -25.93371461	      0.00000000	      0.00000000	      0.00000000
      0.11000000	     49.88064099	      2.47497501	     -1.62460432	      0.75112737	      0.96228278	     -0.27297218	     17.44734379	    -14.35444517	      7.94814785	    -62.97882451	      7.22018093	     16.01410492	    -32.89579614	     24.55919488	     -5.67564623	     -0.17777561	     -5.19253601	    -13.33174577	     13.47583868	    -25.88662871	      0.00000000	      0.00000000	      0.00000000
      0.12000000	     49.84078649	      2.46846474	     -1.61116668	      0.75109282	      0.96230691	     -0.27303285	     17.47962206	    -14.35715790	      7.94194463	    -62.86561575	      7.02640340	     15.83584019	    -34.17879410	     24.62396300	     -5.67807924	     -0.17062852	     -5.19152800	    -13.35592888	     13.46097944	    -25.81707732	      0.00000000	      0.00000000	      0.00000000
      0.13000000	     49.81579485	      2.46380591	     -1.60149199	      0.75106503	      0.96231614	     -0.27307157	     17.49492995	    -14.35720113	      7.93807624	    -62.77739451	      6.89674284	     15.67029491	    -35.33447981	     24.67150504	     -5.68029802	     -0.16724811	     -5.18850045	    -13.37609984	     13.45221644	    -25.73865301	      0.00000000	      0.00000000	      0.00000000
      0.14000000	     49.80779280	      2.46335035	     -1.59635703	      0.75105357	      0.96230221	     -0.27307651	     17.48715741	    -14.35542456	      7.93682499	    -62.72601939	      6.83884138	     15.54746418	    -36.17985404	     24.69907622	     -5.68327717	     -0.16909710	     -5.18190481	    -13.38999078	     13.44900884	    -25.66360526	      0.00000000	      0.00000000	      0.00000000
      0.15000000	     49.81615512	      2.46711662	     -1.59443672	      0.75106125	      0.96227045	     -0.27305020	     17.45957012	    -14.35306851	      7.93722960	    -62.71380019	      6.84644326	     15.48535603	    -36.60608939	     24.70728754	     -5.68725772	     -0.17541899	     -5.17176495	    -13.39776494	     13.45003063	    -25.60127317	      0.00000000	      0.00000000	      0.00000000
      0.16000000	     49.83816127	      2.47292534	     -1.59343747	      0.75108056	      0.96224153	     -0.27300506	     17.42253449	    -14.35165702	      7.93804307	    -62.73531100	      6.90489322	     15.48774361	    -36.58795951	     24.69919577	     -5.69172468	     -0.18413533	     -5.15907561	    -13.40128438	     13.45323286	    -25.55734220	      0.00000000	      0.00000000	      0.00000000
      0.17000000	     49.86892068	      2.47816774	     -1.59152993	      0.75109580	      0.96223466	     -0.27295784	     17.38782004	    -14.35249683	      7.93846943	    -62.78076229	      6.99492156	     15.54548958	    -36.17737742	     24.68012089	     -5.69596342	     -0.19280647	     -5.14482374	    -13.40314094	     13.45623567	    -25.53384583	      0.00000000	      0.00000000	      0.00000000
      0.18000000	     49.90171217	      2.48156874	     -1.58829626	      0.75109492	      0.96225003	     -0.27292366	     17.36336110	    -14.35598149	      7.93843141	    -62.83900123	      7.09500783	     15.64047849	    -35.48456845	     24.65718253	     -5.69945543	     -0.19934498	     -5.12934271	    -13.40584989	     13.45698878	    -25.52973842	      0.00000000	      0.00000000	      0.00000000
      0.19000000	     49.92953415	      2.48350542	     -1.58469649	      0.75108055	      0.96227063	     -0.27291012	     17.35138461	    -14.36139904	      7.93843283	    -62.89916177	      7.18364866	     15.75069023	    -34.65200758	     24.63792091	     -5.70191122	     -0.20238718	     -5.11234261	    -13.41139345	     13.45443651	    -25.54180344	      0.00000000	      0.00000000	      0.00000000
      0.20000000	     49.94724527	      2.48494006	     -1.58217288	      0.75106659	      0.96227952	     -0.27291523	     17.34988520	    -14.36749596	      7.93921526	    -62.95142692	      7.24238586	     15.85499431	    -33.82663544	     24.62828224	     -5.70323749	     -0.20138520	     -5.09345706	    -13.42108167	     13.44885195	    -25.56564783	      0.00000000	      0.00000000	      0.00000000
      0.21000000	     49.95293533	      2.48627358	     -1.58160573	      0.75106256	      0.96227372	     -0.27292785	     17.35530864	    -14.37315328	      7.94130959	    -62.98790388	      7.25922617	     15.93672214	    -33.13521973	     24.63090956	     -5.70359976	     -0.19652075	     -5.07283762	    -13.43557343	     13.44166100	    -25.59657992	      0.00000000	      0.00000000	      0.00000000
      0.22000000	     49.94788207	      2.48718374	     -1.58289838	      0.75106599	      0.96226075	     -0.27293703	     17.36443375	    -14.37754278	      7.94460825	    -63.00390182	      7.23118960	     15.98566346	    -32.66640757	     24.64466358	     -5.70345673	     -0.18849459	     -5.05136158	    -13.45490531	     13.43484067	    -25.63025671	      0.00000000	      0.00000000	      0.00000000
      0.23000000	     49.93549390	      2.48713487	     -1.58526701	      0.75106937	      0.96224805	     -0.27294227	     17.37492783	    -14.38005189	      7.94830358	    -62.99898073	      7.16474735	     15.99859032	    -32.46139780	     24.66557017	     -5.70344101	     -0.17823547	     -5.03035270	    -13.47845159	     13.43016491	    -25.66308561	      0.00000000	      0.00000000	      0.00000000
      0.24000000	     49.91997918	      2.48588455	     -1.58779957	      0.75106934	      0.96223681	     -0.27294768	     17.38510718	    -14.38036848	      7.95130514	    -62.97694593	      7.07374800	     15.97863612	    -32.51353840	     24.68863342	     -5.70409916	     -0.16661066	     -5.01102415	    -13.50483900	     13.42861292	    -25.69242858	      0.00000000	      0.00000000	      0.00000000
